<svg version="1.0" xmlns="http://www.w3.org/2000/svg" width="930.667" height="930.667" viewBox="0 0 698 698">
    <g fill="#ffffff">
        <path d="M342.7 164.7c-.4.3-.7 10.6-.7 22.9v22.2l7.8 4.4c4.2 2.5 12 6.6 17.2 9.3 15 7.6 30.2 15.6 34.1 18.1 2 1.2 8.7 4.8 15 7.9 6.3 3.2 17.5 9.1 24.9 13.3 7.4 4.1 17.8 9.7 23 12.5 5.2 2.7 11.5 6 14 7.4 2.5 1.4 13.3 7 24 12.5s20.5 10.9 21.8 12.1c2.5 2.3 2.8 4.9.8 6.6-1.7 1.4-6.5-.7-15.6-6.9-3-2-10.9-6.5-17.5-9.9-6.6-3.3-14.2-7.4-17-8.9-2.7-1.6-12.2-6.6-21-11.2s-17.1-9.1-18.5-10c-1.4-.9-8.3-4.8-15.5-8.5-23.3-12.2-30-15.7-31-16.5-1.5-1.1-45.5-24-46.2-24-.2 0-.2 11.4-.1 25.2l.3 25.3 4.7 3c6.1 3.8 24.7 14.2 40.2 22.3 6.7 3.5 18 9.5 25.1 13.4 13.8 7.5 20.5 11.1 48.5 25.5 9.6 5 22.9 11.9 29.5 15.3 6.6 3.5 19.3 10 28.2 14.6l16.2 8.4h9c6.6 0 9.1-.3 9.1-1.3 0-.6-.5-7.2-1-14.5-1.7-21.6-7.4-47.2-14.5-64.7-8.9-22.1-26.2-47.9-44.5-66.5-28.2-28.8-59.3-45.9-100.1-55.4-14.2-3.3-48.2-6-50.2-3.9zM318.5 167c-5.3 1-16.4 3.6-25 5.8l-7 1.8-.3 98.2-.2 98.2h45V166l-4.2.1c-2.4.1-6.1.5-8.3.9zM264.5 183.8c-6 3.2-13.2 7.2-16 8.8l-5 3-.3 87.7-.2 87.7h33v-96.5c0-53.1-.1-96.5-.2-96.5-.2 0-5.2 2.7-11.3 5.8zM225.5 209.1c-8.9 6.4-18.3 15.4-22.4 21.4l-3.1 4.6V371h33v-83.5c0-45.9-.1-83.5-.2-83.4-.2 0-3.4 2.3-7.3 5zM182.8 256.1c-2.4 3.4-4.6 6.7-5 7.3-2.2 3.4-13 27.6-15.1 33.8-8.1 24-12.1 45.8-11.5 63.3l.3 10 19.3.3 19.2.2-.2-60.1c-.2-45-.6-60.3-1.5-60.6-.6-.2-3.1 2.4-5.5 5.8zM342.2 303.7l.3 26.8 6.1 3.6c3.3 2 20.8 11.1 39 20.3l33 16.6h98.9l-7-4.1c-3.9-2.3-11.5-6.5-17-9.3-5.5-2.9-11.9-6.5-14.2-7.9-2.4-1.5-4.5-2.7-4.8-2.7-1.6 0-64-32.1-80.1-41.3-4.4-2.4-13.7-7.5-20.9-11.2-7.1-3.7-14.1-7.5-15.5-8.5-4.2-2.8-15.8-9-16.9-9-.8 0-1.1 7.7-.9 26.7zM130 317.1c-21.9 2.3-28.8 3.2-42.5 5.5-43.6 7.1-71.5 18.6-71.5 29.3 0 3.3 6.3 9.7 13 13.1 9.2 4.7 31.3 10.7 51.1 14 15.2 2.5 49 6 57.6 6h6.4l-.3-6.8-.3-6.7-4-.8c-4.6-1-20-8-23-10.5-3.5-2.9-6.5-7.4-6.5-9.7 0-4.7 14-13.7 28.7-18.3l5.3-1.7V316l-3.2.1c-1.8.1-6.7.5-10.8 1zM557.6 320.7c1.4 9.7 1.3 9.5 10.5 12.9 21.9 8.1 27.1 12.9 23.4 22.1-1.3 3.3-2.7 4.6-7.3 7-7.5 4-17.4 7.3-21.5 7.3h-3.3l.4 6.7c.5 9.7.2 9.4 7.4 8.7 49.7-4.3 82.5-10.3 103.2-19 14.5-6.1 19.3-13.8 13.2-21.1-3.4-4-20.1-11.7-33.1-15.2-13-3.4-33.5-7.6-42-8.6-3.3-.3-9.4-1.2-13.5-2-4.2-.8-12.3-1.6-18-2-5.8-.3-12.7-.8-15.3-1.1l-4.8-.5.7 4.8zM342 353.9V371h31c17.1 0 31-.4 31-.8 0-1-11-6.8-36.9-19.6-10.6-5.3-20.6-10.6-22.2-11.7l-2.9-2v17zM158 420.3c0 4.5 14.7 37.3 22 49.2 6 9.8 8.5 12.6 9.9 11.2.8-.8 1.1-10.1 1.1-30.9V420h-16.5c-9.1 0-16.5.2-16.5.3zM199.8 458.2c.2 32 .5 38.6 1.8 40.5 2.9 4.5 15 16.7 21.3 21.4 11 8.4 10.1 12.8 10.1-47.6V420h-33.5l.3 38.2zM243.2 478.7l.3 58.8 11 5.5c6.1 3.1 13.4 6.5 16.3 7.7l5.2 2.2V420h-33l.2 58.7zM286 488.5v68.4l11.2 3.6c10.1 3.2 28.8 7.5 32.4 7.5 1.2 0 1.4-11.4 1.4-74v-74h-45v68.5zM342 429v8.9l6.3 3.4c3.4 1.9 10.3 5.6 15.2 8.2 5 2.6 9.5 5 10 5.4.6.5 8.7 4.8 18 9.6 9.4 4.8 17.5 9.1 18 9.5.6.4 5.1 2.9 10 5.5 5 2.7 15.4 8.3 23.2 12.6 7.8 4.3 20.5 11 28.3 14.9l14.1 7.1 5.9-5.2c3.2-2.8 8-7.6 10.7-10.7 4.8-5.6 14.3-18.5 14.3-19.4 0-.9-11.4-7.5-25.5-14.8-7.7-3.9-14.4-7.5-15-8-.5-.4-9.3-5-19.5-10.2-10.2-5.3-20.1-10.4-22-11.5-1.9-1.1-7.2-3.9-11.8-6.2-4.5-2.4-8.7-5.2-9.3-6.2-.9-1.8-2.6-1.9-35.9-1.9h-35v9zM428 422.9c1.9 1.7 14.8 8.9 28.5 16.2 67 35.4 63.6 33.7 65.3 31.7 2.5-3.2 12-21.6 15.5-30.3 2.3-5.7 6.7-18.8 6.7-20 0-.3-26.9-.5-59.7-.5h-59.7l3.4 2.9zM342.2 471.7l.3 26.8 11.5 6.6c14.1 8 62.5 34.2 73.5 39.7l8 4 10-5.3c5.5-2.9 12.3-6.8 15-8.7 5.4-3.6 19.5-14.7 19.5-15.2 0-.2-7.8-4.6-17.2-9.7-9.5-5.1-19.1-10.2-21.3-11.4-2.2-1.2-8.5-4.6-14-7.5-5.5-2.9-15.1-8.2-21.4-11.6-6.2-3.5-11.5-6.4-11.7-6.4-.3 0-2.1-1.1-4.2-2.3-2-1.3-9.8-5.6-17.2-9.4-7.4-3.9-17.4-9.1-22.3-11.7L342 445l.2 26.7zM342 537.5V569h10.8c12 0 30.5-2.6 45.9-6.5 11.2-2.7 27-8.2 27.8-9.6.7-1-4.1-4.1-16-10.1-4.9-2.5-15.1-8-22.5-12-7.4-4.1-20.6-11.4-29.2-16.1-8.7-4.8-16-8.7-16.3-8.7-.3 0-.5 14.2-.5 31.5z"/>
    </g>
</svg>
